<?xml version="1.0" encoding="UTF-8"?>
<svg width="30px" height="30px" viewBox="0 0 30 30" version="1.1" xmlns="http://www.w3.org/2000/svg" xmlns:xlink="http://www.w3.org/1999/xlink">
    <!-- Generator: Sketch 51.2 (57519) - http://www.bohemiancoding.com/sketch -->
    <title>Candidate</title>
    <desc>Created with Sketch.</desc>
    <defs></defs>
    <g id="admin" stroke="none" stroke-width="1" fill="none" fill-rule="evenodd">
        <g id="Artboard" transform="translate(-246.000000, -118.000000)" fill="#8A83AC" fill-rule="nonzero">
            <g id="Candidate" transform="translate(246.000000, 118.000000)">
                <path d="M11.9246199,23.4748718 C11.6862573,23.5220513 11.5278947,23.7721154 11.5709357,24.0334615 C11.6102339,24.271859 11.630117,24.5167308 11.630117,24.7612179 L11.630117,29.0312179 L0.877192982,29.0312179 L0.877192982,24.7612179 C0.877192982,22.5192949 2.54111111,20.6953846 4.58631579,20.6953846 L5.17222222,20.6953846 L3.96853801,25.1798077 C3.92374269,25.3466667 3.96467836,25.5269872 4.07549708,25.6513462 L5.93976608,27.7442949 C6.0222807,27.8369231 6.1354386,27.8892308 6.25356725,27.8892308 C6.37169591,27.8892308 6.4848538,27.8369872 6.56736842,27.7442949 L8.43163743,25.6513462 C8.54245614,25.5269872 8.58339181,25.3466026 8.53859649,25.1798077 L7.33491228,20.6953846 L7.92081871,20.6953846 C9.1405848,20.6953846 10.2828655,21.3534615 10.9764912,22.4557692 C11.1140936,22.674359 11.3872515,22.7292949 11.5865497,22.5785256 C11.7859649,22.4277564 11.8361404,22.1283974 11.6985965,21.9097436 C10.8412281,20.5472436 9.42894737,19.7338462 7.92081871,19.7338462 L6.74871345,19.7338462 L5.75847953,19.7338462 L4.58631579,19.7338462 C2.0574269,19.7338462 0,21.9891026 0,24.7612179 L0,29.5119872 C0,29.7775641 0.196374269,29.9927564 0.438596491,29.9927564 L12.0687135,29.9927564 C12.3109357,29.9927564 12.5073099,29.7775641 12.5073099,29.5119872 L12.5073099,24.7612179 C12.5073099,24.4596154 12.4826901,24.1572436 12.4342105,23.8625641 C12.3911111,23.6013462 12.1627485,23.428141 11.9246199,23.4748718 Z M6.42070175,20.6953846 L7.62467836,25.1811538 L6.25362573,26.7203846 L4.8825731,25.1811538 L6.08654971,20.6953846 L6.42070175,20.6953846 Z" id="Shape"></path>
                <path d="M6.25368421,18.7209615 C9.10625731,18.7209615 11.4270175,16.1770513 11.4270175,13.0501923 L11.4270175,11.5276282 L11.4270175,10.5480128 C11.4270175,10.4974359 11.4263743,10.4470513 11.4251462,10.3967949 C11.4249123,10.3861538 11.4243275,10.375641 11.4240351,10.3650641 C11.4228655,10.3248718 11.4215205,10.2848077 11.4195906,10.2448077 C11.4191228,10.2350641 11.4184211,10.2253846 11.4178947,10.215641 C11.415731,10.1742949 11.4132164,10.1330128 11.4102339,10.0919231 C11.4097076,10.0848718 11.4090643,10.0778205 11.408538,10.0707051 C11.4051462,10.0266026 11.4014035,9.98262821 11.3971345,9.93878205 C11.3967251,9.93435897 11.3961988,9.93 11.395731,9.92557692 C11.3910526,9.87865385 11.385848,9.83192308 11.380117,9.78532051 C11.3799415,9.78365385 11.3797076,9.78205128 11.3794737,9.78038462 C11.3104094,9.22352564 11.1675439,8.69211538 10.9616959,8.19852564 C10.9563743,8.18576923 10.9508187,8.17314103 10.9454386,8.16044872 C10.9330409,8.13134615 10.9206433,8.10230769 10.9078363,8.07346154 C10.8981287,8.05153846 10.8880702,8.02974359 10.8780702,8.00794872 C10.8694152,7.98910256 10.8608187,7.97019231 10.8519298,7.95147436 C10.8387719,7.92352564 10.8253216,7.89576923 10.8116959,7.86801282 C10.8060234,7.85641026 10.8003509,7.84487179 10.7945614,7.83333333 C10.7781287,7.80038462 10.7614035,7.76762821 10.744386,7.7350641 C10.7418129,7.73012821 10.7391813,7.72519231 10.7366082,7.72025641 C10.4503509,7.17596154 10.0806433,6.68134615 9.63660819,6.26038462 C9.63116959,6.25467949 9.62555556,6.24910256 9.61982456,6.24371795 C9.59883041,6.22397436 9.57701754,6.20557692 9.55578947,6.18621795 C9.54239766,6.17403846 9.52894737,6.16205128 9.5154386,6.15 C9.47175439,6.11108974 9.42766082,6.07288462 9.38298246,6.03564103 C9.35725146,6.01416667 9.33134503,5.99294872 9.30526316,5.97198718 C9.27730994,5.94961538 9.24935673,5.92730769 9.22105263,5.90557692 C9.1794152,5.87352564 9.13730994,5.84217949 9.09479532,5.81147436 C9.08052632,5.80121795 9.06637427,5.79070513 9.05204678,5.78057692 C8.99625731,5.74108974 8.93959064,5.70294872 8.88233918,5.66576923 C8.87602339,5.66173077 8.86976608,5.6575641 8.86345029,5.65352564 C8.22298246,5.24160256 7.49502924,4.97653846 6.71807018,4.90044872 C6.7151462,4.90019231 6.71222222,4.89987179 6.70923977,4.89961538 C6.63736842,4.89269231 6.56508772,4.88724359 6.49239766,4.88365385 C6.48473684,4.88326923 6.47701754,4.88301282 6.46935673,4.88269231 C6.39777778,4.87948718 6.32596491,4.87737179 6.25368421,4.87737179 C4.97754386,4.87737179 3.75181287,5.39108974 2.80222222,6.32384615 C2.62181287,6.50102564 2.60666667,6.805 2.76830409,7.00275641 C2.92994152,7.20038462 3.20725146,7.21711538 3.38766082,7.03987179 C4.17608187,6.26544872 5.19391813,5.83891026 6.25368421,5.83891026 C6.32222222,5.83891026 6.39035088,5.84108974 6.45812865,5.84461538 C6.4874269,5.84615385 6.51654971,5.84884615 6.54578947,5.85102564 C6.5828655,5.85378205 6.61988304,5.85653846 6.65672515,5.86032051 C6.69479532,5.86429487 6.73274854,5.86916667 6.77064327,5.87423077 C6.79690058,5.87769231 6.82309942,5.88121795 6.84918129,5.88519231 C6.89327485,5.89198718 6.93725146,5.89955128 6.98111111,5.90782051 C6.99888889,5.91115385 7.01660819,5.91467949 7.03432749,5.91826923 C7.08409357,5.92839744 7.13374269,5.93916667 7.18309942,5.95115385 C7.19187135,5.95326923 7.2005848,5.95564103 7.20935673,5.95782051 C7.56052632,6.04596154 7.9002924,6.1825 8.22070175,6.36365385 C8.23385965,6.37115385 8.24719298,6.37833333 8.2602924,6.38589744 C8.29795322,6.40775641 8.3351462,6.43070513 8.37222222,6.45384615 C8.39497076,6.46801282 8.4177193,6.48211538 8.44023392,6.49673077 C8.47,6.51602564 8.4994152,6.53602564 8.52883041,6.55615385 C8.55883041,6.57679487 8.58865497,6.5975641 8.61818713,6.61897436 C8.64081871,6.63532051 8.66327485,6.65198718 8.68567251,6.66884615 C8.72216374,6.69641026 8.75824561,6.72455128 8.79391813,6.75326923 C8.80959064,6.76589744 8.82526316,6.77846154 8.84076023,6.79128205 C8.88362573,6.82685897 8.92590643,6.86326923 8.96754386,6.90051282 C8.97596491,6.90807692 8.98450292,6.91544872 8.99292398,6.92307692 C9.02754386,6.95455128 9.06122807,6.98730769 9.09491228,7.0199359 C9.12315789,7.04724359 9.15105263,7.07487179 9.17853801,7.10294872 C9.20637427,7.13134615 9.23391813,7.16 9.26105263,7.18916667 C9.28502924,7.21487179 9.30842105,7.24115385 9.33175439,7.2674359 C9.36011696,7.29942308 9.38847953,7.33147436 9.41602339,7.36429487 C9.43637427,7.38858974 9.45602339,7.41339744 9.47584795,7.43807692 C9.50438596,7.47358974 9.53309942,7.50897436 9.56070175,7.54544872 C9.5774269,7.5675 9.59321637,7.59025641 9.60959064,7.61269231 C9.70350877,7.74141026 9.79122807,7.87570513 9.8725731,8.01487179 C9.8928655,8.04967949 9.91368421,8.08416667 9.93315789,8.11948718 C9.9494152,8.14897436 9.9645614,8.17923077 9.98023392,8.20910256 C10.0016959,8.2500641 10.0232164,8.29102564 10.0435673,8.33262821 C10.0568421,8.35980769 10.0692982,8.3875 10.0821053,8.415 C10.1034503,8.46089744 10.1245029,8.50685897 10.1444444,8.55346154 C10.1551462,8.57839744 10.1653216,8.60371795 10.175614,8.62891026 C10.1961988,8.67935897 10.2161988,8.7300641 10.2351462,8.78128205 C10.2436257,8.80416667 10.2518713,8.82717949 10.26,8.85025641 C10.2792398,8.90480769 10.2976608,8.95967949 10.3150292,9.015 C10.3216959,9.03615385 10.3283041,9.05730769 10.3346784,9.07858974 C10.3520468,9.13653846 10.3683041,9.1949359 10.3836257,9.25365385 C10.3888304,9.27346154 10.394152,9.29320513 10.3990643,9.31314103 C10.4140936,9.37365385 10.4277193,9.43467949 10.4405263,9.49589744 C10.4445029,9.5150641 10.4488304,9.53403846 10.4526316,9.55326923 C10.4648538,9.61532051 10.4754971,9.67782051 10.4854386,9.74044872 C10.4884795,9.75967949 10.4920468,9.77878205 10.4948538,9.79807692 C10.5040936,9.86076923 10.5115205,9.92384615 10.5184211,9.98705128 C10.5205848,10.0069231 10.5233918,10.0264744 10.5253216,10.0464103 C10.5315789,10.110641 10.5359064,10.1753205 10.5397661,10.2400641 C10.5408772,10.2590385 10.542807,10.2777564 10.5437427,10.2967949 C10.5477778,10.3801923 10.55,10.4639103 10.55,10.5478846 L10.55,10.9564103 C9.65491228,10.715641 8.87450292,10.110641 8.36187135,9.24474359 C8.28766082,9.11942308 8.16450292,9.03903846 8.02865497,9.02717949 C7.89245614,9.01538462 7.75959064,9.07346154 7.66830409,9.18435897 C6.6802924,10.3844231 5.26947368,11.0726282 3.79766082,11.0726282 C3.16327485,11.0726282 2.54561404,10.9491667 1.95766082,10.7051923 L1.95766082,10.5478846 C1.95766082,9.81923077 2.10520468,9.12089744 2.39625731,8.47230769 C2.50315789,8.23403846 2.41362573,7.94589744 2.19631579,7.82871795 C1.97883041,7.71128205 1.71608187,7.80967949 1.60912281,8.04788462 C1.25830409,8.82967949 1.08040936,9.67076923 1.08040936,10.5478846 L1.08040936,11.0276282 L1.08040936,13.0500641 C1.08035088,16.1771154 3.40105263,18.7209615 6.25368421,18.7209615 Z M1.95754386,11.7228205 C2.55064327,11.9295513 3.16701754,12.0342949 3.79754386,12.0342949 C5.33912281,12.0342949 6.82327485,11.3882051 7.9454386,10.2446795 C8.61134503,11.1242308 9.52695906,11.7205769 10.5498246,11.9399359 L10.5498246,13.0501923 C10.5498246,15.646859 8.6225731,17.7594231 6.25368421,17.7594231 C3.88479532,17.7594231 1.95754386,15.646859 1.95754386,13.0501923 L1.95754386,11.7228205 Z" id="Shape"></path>
                <path d="M6.29135542,15.0246154 L6.89870306,15.0246154 C7.16176213,15.0246154 7.37502924,14.8094231 7.37502924,14.5438462 C7.37502924,14.2782692 7.16176213,14.0630769 6.89870306,14.0630769 L6.7676816,14.0630769 L6.7676816,12.9417949 C6.7676816,12.6762179 6.55441449,12.4610256 6.29135542,12.4610256 C6.02829635,12.4610256 5.81502924,12.6762179 5.81502924,12.9417949 L5.81502924,14.5438462 C5.81502924,14.8094231 6.02829635,15.0246154 6.29135542,15.0246154 Z" id="Shape"></path>
                <path d="M8.2277193,2.43865385 C9.79625731,2.40775641 11.3478363,2.66557692 12.8380117,3.20474359 C12.8835088,3.22121795 12.929883,3.22910256 12.9754971,3.22910256 C13.147193,3.22910256 13.3088889,3.11788462 13.3792982,2.93589744 L14.2535673,0.675833333 C14.3122807,0.524102564 14.2959649,0.349935897 14.2103509,0.214423077 C14.1247368,0.078974359 13.9819298,-0.000448717949 13.831462,0.00782051282 C13.407076,0.0272435897 12.9829825,0.0652564103 12.5708772,0.121025641 C10.9959064,0.333589744 9.47076023,0.804487179 8.03789474,1.52051282 C7.84877193,1.615 7.74614035,1.84205128 7.79204678,2.06416667 C7.8380117,2.28634615 8.01760234,2.44115385 8.2277193,2.43865385 Z M12.6781871,1.07532051 C12.8398246,1.05352564 13.0033918,1.03455128 13.1682456,1.01852564 L12.7272515,2.15846154 C11.9452632,1.90102564 11.148655,1.71583333 10.3426901,1.60358974 C11.1036257,1.35929487 11.8840936,1.1825641 12.6781871,1.07532051 Z" id="Shape"></path>
                <path d="M29.9264912,16.2280128 C29.9211111,16.0941026 29.8649123,15.9687179 29.7715789,15.8821154 C29.6781871,15.7955128 29.555848,15.7554487 29.4347368,15.7720513 L22.8224561,16.665 C22.5953801,16.695641 22.4279532,16.9124359 22.4378947,17.1630128 C22.4418129,17.2623077 22.4446199,17.3616026 22.4463743,17.4608333 C22.4508772,17.7264103 22.6518713,17.9388462 22.8931579,17.9325 C23.0959649,17.9283333 23.2639766,17.7738462 23.3106433,17.5678846 L29.0635088,16.7910256 C29.0922807,19.5119231 28.4874269,22.1873718 27.301345,24.5826923 L22.704269,22.4462821 C22.8212865,22.0185256 22.9219298,21.5841026 23.0063158,21.1473718 C24.3362573,21.5035256 25.3221637,21.7675 25.5205848,21.8207051 C25.5332749,21.8241667 25.5460819,21.8269231 25.5588304,21.8290385 C25.605731,21.8387179 25.652924,21.8435256 25.699883,21.8435256 C25.9269591,21.8435256 26.1472515,21.7323077 26.2923392,21.5351282 C26.4197076,21.3623718 26.4783041,21.1455769 26.457193,20.9246795 C26.4360819,20.7032051 26.3374854,20.5040385 26.1795906,20.3639744 C26.1374854,20.3266667 26.0912865,20.2946154 26.0391813,20.2666667 C26.0246784,20.2577564 26.0097076,20.2498077 25.9942105,20.2427564 C25.5153801,20.0237179 20.2251462,17.5994872 16.9908187,16.1170513 C16.6232749,14.7923077 15.4165497,13.9133333 14.1399415,14.0849359 C12.6945029,14.280641 11.6630994,15.7290385 11.8408772,17.3137179 C12.0053216,18.7789103 13.147076,19.8559615 14.4615205,19.8559615 C14.5687135,19.8559615 14.677076,19.8488462 14.7860819,19.8341026 C15.2456725,19.7719231 15.6749708,19.5820513 16.0412281,19.2819872 L22.1538012,20.9191026 C22.0473099,21.4758333 21.9122222,22.0286538 21.7497661,22.5676923 C21.6781287,22.8053205 21.7848538,23.0633974 21.9950292,23.1611538 L27.3207602,25.6361538 C27.3764327,25.6619872 27.4344444,25.674359 27.4917544,25.674359 C27.6443275,25.674359 27.7912865,25.5867949 27.8718129,25.4339744 C29.345731,22.6357051 30.0562573,19.4523077 29.9264912,16.2280128 Z M14.6785965,18.8797436 C14.605731,18.8895513 14.5335088,18.8944231 14.4618129,18.8944231 C13.5839181,18.8942949 12.8211111,18.1749359 12.7112865,17.1963462 C12.5925731,16.1376282 13.2815789,15.17 14.2470175,15.0392949 C14.318538,15.0296795 14.3895906,15.0249359 14.4601754,15.0249359 C15.2836842,15.0249359 16.0215205,15.6649359 16.1912281,16.5673077 C16.200117,16.6138462 16.2077778,16.6650641 16.214386,16.7230128 C16.2850877,17.3502564 16.0705263,17.9773718 15.6403509,18.4005128 C15.6402924,18.4005769 15.6402339,18.400641 15.6401754,18.4007051 C15.371462,18.6653205 15.0388889,18.8309615 14.6785965,18.8797436 Z M16.7235088,18.4567308 C16.735848,18.434359 16.7472515,18.4115385 16.7590058,18.3888462 C16.7728655,18.3620513 16.7869006,18.3353205 16.7999415,18.3080769 C16.8111696,18.2847436 16.8215205,18.2610256 16.8321053,18.2373718 C16.844386,18.2100641 16.8567251,18.1827564 16.8681871,18.155 C16.8781871,18.1308333 16.8873684,18.1063462 16.8967251,18.0819231 C16.9074269,18.0539744 16.9181871,18.0261538 16.9280702,17.9978846 C16.9367836,17.9730128 16.9447368,17.9479487 16.952807,17.9228846 C16.9619883,17.8944231 16.9711111,17.8660256 16.9794737,17.8372436 C16.9869006,17.8117949 16.9935673,17.7860897 17.0003509,17.7603846 C17.0079532,17.7315385 17.0154386,17.7026923 17.0222222,17.6735897 C17.0283041,17.6475 17.0336842,17.6212179 17.0391228,17.5949359 C17.0451462,17.5657051 17.0509942,17.5365385 17.0561404,17.5071154 C17.0608187,17.4804487 17.0649708,17.4537179 17.0689474,17.4269231 C17.0733333,17.3975641 17.0775439,17.368141 17.0811111,17.3386538 C17.084386,17.3114744 17.0871345,17.2841667 17.0897661,17.256859 C17.091345,17.2402564 17.0936842,17.2237179 17.0950292,17.2070513 C19.3953216,18.2613462 22.4950877,19.6817949 24.2748538,20.4972436 C23.7826316,20.3654487 23.1945614,20.2079487 22.5509357,20.035641 L16.7150877,18.4726923 C16.7180702,18.4674359 16.7205848,18.4619872 16.7235088,18.4567308 Z" id="Shape"></path>
                <path d="M26.2776023,26.9498077 L21.4029825,24.6840385 C21.1931579,24.5866667 20.9499415,24.6815385 20.8437427,24.9026282 C20.0726901,26.5071795 19.058538,27.9380128 17.8294152,29.1551923 C17.6947953,29.2885256 17.6489474,29.4989744 17.7140936,29.6846154 C17.7792398,29.8702564 17.9419298,29.9927564 18.1234503,29.9927564 L24.2110526,29.9927564 C24.3153801,29.9927564 24.4163158,29.9519872 24.4956725,29.8777564 C25.2059064,29.2137821 25.8621053,28.4798718 26.4460234,27.6967308 C26.5333918,27.5795513 26.5653216,27.4240385 26.5321637,27.2771154 C26.4990058,27.1301923 26.4047368,27.0089103 26.2776023,26.9498077 Z M24.0480117,29.0312179 L19.2036257,29.0312179 C20.0682456,28.0403846 20.8129825,26.9380769 21.4268421,25.7396154 L25.3850292,27.579359 C24.9702339,28.0915385 24.5224561,28.5778205 24.0480117,29.0312179 Z" id="Shape"></path>
                <path d="M14.9688304,4.19698718 C16.4540351,5.05442308 17.7748538,6.18467949 18.8945614,7.55628205 C18.9808187,7.66192308 19.1007018,7.71647436 19.2216374,7.71647436 C19.3139181,7.71647436 19.4067251,7.68467949 19.4855556,7.61955128 L23.7128655,4.125 C23.8230994,4.03384615 23.8877778,3.89115385 23.8873684,3.73980769 C23.8869591,3.58846154 23.8215789,3.44608974 23.7108772,3.35564103 C21.5818713,1.61602564 19.0721637,0.500961538 16.4532164,0.130769231 C16.2582456,0.103012821 16.070117,0.221410256 15.9933333,0.419935897 L14.7694152,3.58397436 C14.6804094,3.81403846 14.767076,4.08057692 14.9688304,4.19698718 Z M16.6694737,1.1350641 C18.8276023,1.49589744 20.8979532,2.39352564 22.7077778,3.75147436 L19.2750292,6.58923077 C18.2380702,5.38532051 17.0491813,4.36801282 15.7323392,3.55769231 L16.6694737,1.1350641 Z" id="Shape"></path>
                <path d="M20.2905263,9.58076923 C21.1860234,11.1324359 21.8131579,12.8352564 22.1546199,14.641859 C22.1972515,14.8673718 22.3784795,15.0251282 22.5836842,15.0251282 C22.6015205,15.0251282 22.6195906,15.0239103 22.6377193,15.0214103 L29.2498246,14.1286538 C29.3711696,14.1123077 29.4808187,14.0410897 29.5522222,13.9323077 C29.6236842,13.8235256 29.6504094,13.6869231 29.6259649,13.5555769 C29.0383041,10.3930769 27.6443275,7.49391026 25.5946199,5.17160256 C25.4407018,4.99711538 25.1921637,4.97576923 25.0153216,5.12205128 L20.3970175,8.93987179 C20.2148538,9.09057692 20.1684795,9.36935897 20.2905263,9.58076923 Z M25.229883,6.14916667 C26.9108772,8.15730769 28.089883,10.591859 28.664152,13.2391026 L22.9262573,14.0137821 C22.5793567,12.3984615 22.0146199,10.8651282 21.2434503,9.44467949 L25.229883,6.14916667 Z" id="Shape"></path>
            </g>
        </g>
    </g>
</svg>