<?xml version="1.0" encoding="UTF-8"?>
<svg width="40px" height="30px" viewBox="0 0 40 30" version="1.1" xmlns="http://www.w3.org/2000/svg" xmlns:xlink="http://www.w3.org/1999/xlink">
    <!-- Generator: Sketch 51.2 (57519) - http://www.bohemiancoding.com/sketch -->
    <title>Home</title>
    <desc>Created with Sketch.</desc>
    <defs></defs>
    <g id="admin" stroke="none" stroke-width="1" fill="none" fill-rule="evenodd">
        <g id="Artboard" transform="translate(-197.000000, -118.000000)" fill="#FFFFFF" fill-rule="nonzero">
            <g id="Home" transform="translate(197.000000, 118.000000)">
                <path d="M8.38929687,7.30069149 C8.71289062,7.30069149 8.97523437,7.03284574 8.97523437,6.70228723 L8.97523437,4.20023936 C8.97523437,2.58207447 10.2646875,1.26558511 11.8496094,1.26558511 L17.0559375,1.26558511 L17.0559375,7.77925532 L13.1979688,7.77925532 L13.1979688,4.46808511 C13.1979688,4.1375266 12.935625,3.86968085 12.6120313,3.86968085 C12.2884375,3.86968085 12.0260938,4.1375266 12.0260938,4.46808511 L12.0260938,11.3297872 C12.0260938,11.6603457 12.2884375,11.9281915 12.6120313,11.9281915 C12.935625,11.9281915 13.1979688,11.6603457 13.1979688,11.3297872 L13.1979688,8.97606383 L17.641875,8.97606383 C17.9654687,8.97606383 18.2278125,8.70821809 18.2278125,8.37765957 L18.2278125,1.26550532 L26.2109375,1.26550532 L26.2109375,3.92393617 L21.015625,3.92393617 C20.6920312,3.92393617 20.4296875,4.19178191 20.4296875,4.52234043 L20.4296875,15.0797872 C20.4296875,15.4103457 20.6920312,15.6781915 21.015625,15.6781915 C21.3392188,15.6781915 21.6015625,15.4103457 21.6015625,15.0797872 L21.6015625,5.12082447 L26.796875,5.12082447 C27.1204688,5.12082447 27.3828125,4.85297872 27.3828125,4.52242021 L27.3828125,1.26550532 L28.1503906,1.26550532 C29.7353125,1.26550532 31.0247656,2.58199468 31.0247656,4.20015957 L31.0247656,5.21050532 C31.0247656,5.54106383 31.2871094,5.80890957 31.6107031,5.80890957 C31.9342969,5.80890957 32.1966406,5.54106383 32.1966406,5.21050532 L32.1966406,4.20015957 C32.1966406,1.92199468 30.3814844,0.0686968085 28.1503906,0.0686968085 L11.8496094,0.0686968085 C9.61851562,0.0686968085 7.80335937,1.92207447 7.80335937,4.20015957 L7.80335937,6.70220745 C7.80335937,7.03284574 8.06570313,7.30069149 8.38929687,7.30069149 Z" id="Shape"></path>
                <path d="M8.38929687,20.2466489 C8.71289062,20.2466489 8.97523437,19.9788032 8.97523437,19.6482447 L8.97523437,9.09574468 C8.97523437,8.76518617 8.71289062,8.49734043 8.38929687,8.49734043 C8.06570312,8.49734043 7.80335937,8.76518617 7.80335937,9.09574468 L7.80335937,19.6482447 C7.80335937,19.9787234 8.06570312,20.2466489 8.38929687,20.2466489 Z" id="Shape"></path>
                <path d="M31.6107031,9.75335106 C31.2871094,9.75335106 31.0247656,10.0211968 31.0247656,10.3517553 L31.0247656,12.087766 L27.890625,12.087766 C27.5670312,12.087766 27.3046875,12.3556117 27.3046875,12.6861702 L27.3046875,22.0570213 L18.28125,22.0570213 C17.9576562,22.0570213 17.6953125,22.324867 17.6953125,22.6554255 C17.6953125,22.985984 17.9576562,23.2538298 18.28125,23.2538298 L27.890625,23.2538298 C28.2142187,23.2538298 28.4765625,22.985984 28.4765625,22.6554255 L28.4765625,13.2845745 L31.0247656,13.2845745 L31.0247656,25.7997606 C31.0247656,27.4179255 29.7353125,28.7344149 28.1503906,28.7344149 L21.3045312,28.7344149 L21.3045312,25.9308511 C21.3045312,25.6002926 21.0421875,25.3324468 20.7185937,25.3324468 L15.1510156,25.3324468 L15.1510156,17.5930851 C15.1510156,17.2625266 14.8886719,16.9946809 14.5650781,16.9946809 C14.2414844,16.9946809 13.9791406,17.2625266 13.9791406,17.5930851 L13.9791406,25.9308511 C13.9791406,26.2614096 14.2414844,26.5292553 14.5650781,26.5292553 L20.1326562,26.5292553 L20.1326562,28.7344947 L11.8496094,28.7344947 C10.2646875,28.7344947 8.97523437,27.4180053 8.97523437,25.7998404 L8.97523437,24.7894947 C8.97523437,24.4589362 8.71289062,24.1910904 8.38929687,24.1910904 C8.06570312,24.1910904 7.80335937,24.4589362 7.80335937,24.7894947 L7.80335937,25.7998404 C7.80335937,28.0780053 9.61851562,29.9313032 11.8496094,29.9313032 L28.1503906,29.9313032 C30.3814844,29.9313032 32.1966406,28.0779255 32.1966406,25.7998404 L32.1966406,10.3517553 C32.1966406,10.0212766 31.9342969,9.75335106 31.6107031,9.75335106 Z" id="Shape"></path>
                <path d="M2.48640625,19.4778191 C1.11539062,19.4778191 0,20.6169415 0,22.0171277 C0,23.4173138 1.11539062,24.5564362 2.48640625,24.5564362 C3.85742188,24.5564362 4.9728125,23.4173138 4.9728125,22.0171277 C4.9728125,20.6169415 3.85742188,19.4778191 2.48640625,19.4778191 Z M2.48640625,23.3596277 C1.7615625,23.3596277 1.171875,22.7573936 1.171875,22.0171277 C1.171875,21.2768617 1.7615625,20.6746277 2.48640625,20.6746277 C3.21125,20.6746277 3.8009375,21.2768617 3.8009375,22.0171277 C3.8009375,22.7573936 3.21125,23.3596277 2.48640625,23.3596277 Z" id="Shape"></path>
                <path d="M38.7369531,7.57978723 L39.8283594,6.46515957 C40.0571875,6.23138298 40.0571875,5.85255319 39.8283594,5.61885638 C39.5995313,5.38523936 39.2285156,5.38523936 38.9997656,5.61885638 L37.9083594,6.73356383 L36.8169531,5.61885638 C36.5882031,5.38523936 36.2171875,5.38523936 35.9883594,5.61885638 C35.7595313,5.85263298 35.7595313,6.23146277 35.9883594,6.46515957 L37.0797656,7.57978723 L35.9883594,8.69441489 C35.7595313,8.92819149 35.7595313,9.30702128 35.9883594,9.54071809 C36.1027344,9.6575266 36.2527344,9.71593085 36.4026563,9.71593085 C36.5525781,9.71593085 36.7025781,9.6575266 36.8169531,9.54071809 L37.9083594,8.42601064 L38.9997656,9.54071809 C39.1141406,9.6575266 39.2641406,9.71593085 39.4140625,9.71593085 C39.5639844,9.71593085 39.7139844,9.6575266 39.8283594,9.54071809 C40.0571875,9.30694149 40.0571875,8.9281117 39.8283594,8.69441489 L38.7369531,7.57978723 Z" id="Shape"></path>
                <path d="M33.3353125,7.18284574 L24.26875,7.18284574 C23.9451563,7.18284574 23.6828125,7.45069149 23.6828125,7.78125 L23.6828125,18.5505319 L18.2421875,18.5505319 L18.2421875,14.0145479 C18.2421875,13.6839894 17.9798438,13.4161436 17.65625,13.4161436 L11.4739844,13.4161436 C11.1503906,13.4161436 10.8880469,13.6839894 10.8880469,14.0145479 L10.8880469,21.620266 L6.6646875,21.620266 C6.34109375,21.620266 6.07875,21.8881117 6.07875,22.2186702 C6.07875,22.5492287 6.34109375,22.8170745 6.6646875,22.8170745 L11.4739844,22.8170745 C11.7975781,22.8170745 12.0599219,22.5492287 12.0599219,22.2186702 L12.0599219,14.6129521 L17.0703125,14.6129521 L17.0703125,19.1489362 C17.0703125,19.4794947 17.3326562,19.7473404 17.65625,19.7473404 L24.26875,19.7473404 C24.5923437,19.7473404 24.8546875,19.4794947 24.8546875,19.1489362 L24.8546875,8.37965426 L33.3353125,8.37965426 C33.6589063,8.37965426 33.92125,8.11180851 33.92125,7.78125 C33.92125,7.45069149 33.6589063,7.18284574 33.3353125,7.18284574 Z" id="Shape"></path>
            </g>
        </g>
    </g>
</svg>