<?xml version="1.0" encoding="UTF-8"?>
<svg width="30px" height="30px" viewBox="0 0 30 30" version="1.1" xmlns="http://www.w3.org/2000/svg" xmlns:xlink="http://www.w3.org/1999/xlink">
    <!-- Generator: Sketch 51.2 (57519) - http://www.bohemiancoding.com/sketch -->
    <title>Question</title>
    <desc>Created with Sketch.</desc>
    <defs></defs>
    <g id="admin" stroke="none" stroke-width="1" fill="none" fill-rule="evenodd">
        <g id="Artboard" transform="translate(-104.000000, -61.000000)" fill="#FFFFFF" fill-rule="nonzero">
            <g id="Question" transform="translate(104.000000, 61.000000)">
                <path d="M29.3967251,5.36210526 L26.7768421,3.52723684 C26.7439181,3.50421053 26.7084795,3.48671053 26.6716959,3.47421053 C26.6709357,3.47394737 26.6702339,3.47355263 26.6695322,3.47335526 C26.6556725,3.46875 26.6415205,3.46565789 26.6273684,3.46263158 C26.6220468,3.46151316 26.6169006,3.45980263 26.6115789,3.45888158 C26.5992398,3.45677632 26.5867836,3.45605263 26.574269,3.45506579 C26.5669006,3.45447368 26.5596491,3.45348684 26.5522807,3.45335526 C26.549883,3.45328947 26.5474854,3.45276316 26.5450877,3.45276316 L24.585614,3.45276316 C24.3970175,2.34927632 23.5327485,1.51289474 22.4976608,1.51289474 L21.7222222,1.51289474 L21.7222222,0.550723684 C21.7222222,0.278223684 21.525848,0.0573026316 21.2836257,0.0573026316 C21.0414035,0.0573026316 20.8450292,0.278223684 20.8450292,0.550723684 L20.8450292,1.51282895 L17.2726901,1.51282895 L17.2726901,0.550723684 C17.2726901,0.278223684 17.0763158,0.0573026316 16.8340936,0.0573026316 C16.5918713,0.0573026316 16.3954971,0.278223684 16.3954971,0.550723684 L16.3954971,1.51282895 L12.8231579,1.51282895 L12.8231579,0.550723684 C12.8231579,0.278223684 12.6267836,0.0573026316 12.3845614,0.0573026316 C12.1423392,0.0573026316 11.9459649,0.278223684 11.9459649,0.550723684 L11.9459649,1.51282895 L8.37362573,1.51282895 L8.37362573,0.550723684 C8.37362573,0.278223684 8.17725146,0.0573026316 7.93502924,0.0573026316 C7.69280702,0.0573026316 7.49643275,0.278223684 7.49643275,0.550723684 L7.49643275,1.51282895 L5.03298246,1.51282895 C4.79076023,1.51282895 4.59438596,1.73375 4.59438596,2.00625 L4.59438596,3.45269737 L1.17368421,3.45269737 C0.706432749,3.45269737 0.303274854,3.76243421 0.114561404,4.20835526 C0.041871345,4.37993421 0,4.57111842 0,4.77348684 L0,5.13440789 C0,5.40690789 0.196374269,5.62782895 0.438596491,5.62782895 C0.680818713,5.62782895 0.877192982,5.40690789 0.877192982,5.13440789 L0.877192982,4.77375 C0.877192982,4.72059211 0.889298246,4.67092105 0.908947368,4.62631579 C0.95748538,4.51631579 1.0574269,4.43980263 1.17380117,4.43980263 L2.43783626,4.43980263 C2.41309942,4.54644737 2.39988304,4.65828947 2.39988304,4.77348684 L2.39988304,8.15855263 C2.39988304,8.27375 2.41304094,8.38552632 2.43783626,8.49217105 L1.17368421,8.49217105 C1.13280702,8.49217105 1.09385965,8.48282895 1.05842105,8.46592105 C1.05748538,8.46546053 1.05666667,8.46473684 1.05573099,8.46427632 C1.03906433,8.45611842 1.02304094,8.44651316 1.00812865,8.43513158 C0.929181287,8.37513158 0.877192982,8.27355263 0.877192982,8.15855263 L0.877192982,7.10809211 C0.877192982,6.83559211 0.680818713,6.61467105 0.438596491,6.61467105 C0.196374269,6.61467105 0,6.83559211 0,7.10809211 L0,8.15855263 C0,8.61361842 0.205672515,9.01565789 0.517953216,9.25315789 C0.542982456,9.27217105 0.569181287,9.28934211 0.595497076,9.30625 C0.601988304,9.31039474 0.608070175,9.31532895 0.614678363,9.31934211 C0.780994152,9.42111842 0.971520468,9.47901316 1.17380117,9.47901316 L3.57374269,9.47901316 C3.57415205,9.47901316 3.57450292,9.47894737 3.5748538,9.47894737 L4.59438596,9.47894737 L4.59438596,22.1560526 C4.59438596,22.4285526 4.79076023,22.6494737 5.03298246,22.6494737 C5.27520468,22.6494737 5.47157895,22.4285526 5.47157895,22.1560526 L5.47157895,2.49967105 L7.49643275,2.49967105 L7.49643275,3.46177632 C7.49643275,3.73427632 7.69280702,3.95519737 7.93502924,3.95519737 C8.17725146,3.95519737 8.37362573,3.73427632 8.37362573,3.46177632 L8.37362573,2.49967105 L11.9459649,2.49967105 L11.9459649,3.46177632 C11.9459649,3.73427632 12.1423392,3.95519737 12.3845614,3.95519737 C12.6267836,3.95519737 12.8231579,3.73427632 12.8231579,3.46177632 L12.8231579,2.49967105 L16.3954971,2.49967105 L16.3954971,3.46177632 C16.3954971,3.73427632 16.5918713,3.95519737 16.8340936,3.95519737 C17.0763158,3.95519737 17.2726901,3.73427632 17.2726901,3.46177632 L17.2726901,2.49967105 L20.8450292,2.49967105 L20.8450292,3.46177632 C20.8450292,3.73427632 21.0414035,3.95519737 21.2836257,3.95519737 C21.525848,3.95519737 21.7222222,3.73427632 21.7222222,3.46177632 L21.7222222,2.49967105 L22.4975439,2.49967105 C23.1864912,2.49967105 23.7469591,3.13019737 23.7469591,3.90526316 L23.7469591,3.94105263 C23.7469591,3.94276316 23.7467251,3.94440789 23.7467251,3.94611842 C23.7467251,3.94782895 23.7469591,3.94947368 23.7469591,3.95118421 L23.7469591,8.98046053 C23.7469591,8.98217105 23.7467251,8.98381579 23.7467251,8.98552632 C23.7467251,8.98723684 23.7469591,8.98888158 23.7469591,8.99059211 L23.7469591,12.0423026 C23.7469591,12.3148026 23.9433333,12.5357237 24.1855556,12.5357237 C24.4277778,12.5357237 24.624152,12.3148026 24.624152,12.0423026 L24.624152,9.47888158 L26.5438596,9.47888158 C26.544152,9.47888158 26.5444444,9.47894737 26.5447953,9.47894737 C26.5651462,9.47894737 26.5854971,9.47730263 26.605731,9.47414474 C26.6118713,9.47315789 26.6177778,9.47111842 26.6238012,9.46986842 C26.6376023,9.46703947 26.6514035,9.46440789 26.6649708,9.46006579 C26.6777778,9.45598684 26.690117,9.45026316 26.7025731,9.44486842 C26.7090643,9.44203947 26.715731,9.44006579 26.7221053,9.43690789 C26.7409357,9.42756579 26.7591813,9.41677632 26.7767836,9.40447368 L29.3967251,7.57019737 C29.7379532,7.33118421 29.9416959,6.91842105 29.9416374,6.46611842 C29.9416374,6.01381579 29.7379532,5.60111842 29.3967251,5.36210526 Z M3.57315789,8.49217105 C3.40988304,8.49184211 3.27707602,8.34230263 3.27707602,8.15855263 L3.27707602,4.77348684 C3.27707602,4.58947368 3.41011696,4.43980263 3.57368421,4.43980263 C3.57520468,4.43980263 3.57666667,4.43953947 3.57818713,4.43953947 L4.59432749,4.43953947 L4.59432749,8.49217105 L3.57315789,8.49217105 Z M29.0643275,6.46605263 C29.0643275,6.51842105 29.0515205,6.64914474 28.932924,6.73223684 C28.932924,6.73223684 28.932924,6.73223684 28.932924,6.73223684 L26.9834503,8.09736842 L26.9834503,4.83473684 L28.932924,6.19986842 C29.0515205,6.28296053 29.0643275,6.41368421 29.0643275,6.46605263 Z M24.6242105,4.43953947 L26.1062573,4.43953947 L26.1062573,8.49217105 L24.6242105,8.49217105 L24.6242105,4.43953947 Z" id="Shape"></path>
                <path d="M24.185614,13.5226974 C23.9433918,13.5226974 23.7470175,13.7436184 23.7470175,14.0161184 L23.7470175,23.5021711 L19.3377778,23.5021711 C19.0955556,23.5021711 18.8991813,23.7230921 18.8991813,23.9955921 L18.8991813,28.9559868 L6.72105263,28.9559868 C6.03210526,28.9559868 5.47163743,28.3254605 5.47163743,27.5503947 L5.47163743,24.1298684 C5.47163743,23.8573684 5.27526316,23.6364474 5.03304094,23.6364474 C4.79081871,23.6364474 4.59444444,23.8573684 4.59444444,24.1298684 L4.59444444,27.5503947 C4.59444444,28.8696053 5.54842105,29.9428289 6.72105263,29.9428289 L19.3377778,29.9428289 C19.3395906,29.9428289 19.341345,29.9425658 19.3430994,29.9425658 C19.3556725,29.9423684 19.3681871,29.9418421 19.3806433,29.9404605 C19.3874269,29.9397368 19.3940936,29.9382237 19.4008187,29.9371053 C19.4082456,29.9358553 19.4156725,29.935 19.4230409,29.9333553 C19.430117,29.9317763 19.437076,29.9294737 19.4440936,29.9275 C19.4509357,29.9255921 19.4578363,29.9240132 19.4645614,29.9217105 C19.4711696,29.9194737 19.4776023,29.9165132 19.4840936,29.9139474 C19.4910526,29.9111842 19.4981287,29.9086842 19.5049708,29.9055263 C19.5107602,29.9028289 19.5162573,29.8995395 19.5219883,29.8965789 C19.5292982,29.8927632 19.5367251,29.8892105 19.5438596,29.8849342 C19.5492398,29.8817105 19.554269,29.8778947 19.5595322,29.8744737 C19.5666667,29.8697368 19.5739181,29.8653289 19.5808187,29.8601316 C19.5867251,29.8557237 19.5922807,29.8506579 19.5980117,29.8458553 C19.6038596,29.8409868 19.6099415,29.8364474 19.615614,29.8311842 C19.6268421,29.8208553 19.6376608,29.8098684 19.6480117,29.7982237 L24.4959064,24.3444079 C24.4960819,24.3442105 24.4962573,24.3439474 24.4964327,24.3436842 C24.51,24.3283553 24.5222222,24.3118421 24.5338012,24.2948026 C24.5368421,24.2903289 24.5398246,24.2858553 24.5426901,24.28125 C24.5536842,24.2638816 24.5639766,24.2461184 24.572807,24.2273684 C24.5733918,24.2260526 24.5738596,24.2247368 24.5744444,24.2234211 C24.5826316,24.2057237 24.5895906,24.1874342 24.595848,24.16875 C24.5976023,24.1634868 24.5992982,24.1582237 24.6008772,24.1528947 C24.6068421,24.1330263 24.6121053,24.1128289 24.6157895,24.0921053 C24.6159064,24.0913158 24.6159649,24.0905263 24.6160819,24.0897368 C24.6195322,24.0698026 24.6215205,24.0495395 24.622807,24.0291447 C24.6231579,24.0232895 24.6233918,24.0175 24.6235673,24.0115789 C24.6237427,24.0061842 24.624269,24.0008553 24.624269,23.9954605 L24.624269,14.0161184 C24.6242105,13.7436184 24.4278363,13.5226974 24.185614,13.5226974 Z M19.7763158,24.4890132 L23.1267251,24.4890132 L19.7763158,28.2582237 L19.7763158,24.4890132 Z" id="Shape"></path>
                <path d="M8.84134503,9.65565789 C8.92695906,9.75197368 9.03923977,9.80019737 9.15146199,9.80019737 C9.26368421,9.80019737 9.37596491,9.75203947 9.46157895,9.65565789 L11.0760234,7.83940789 C11.2473099,7.64671053 11.2473099,7.33427632 11.0760234,7.14164474 C10.9047368,6.94894737 10.6270175,6.94894737 10.4557895,7.14164474 L9.15146199,8.60901316 L8.59415205,7.98203947 C8.4228655,7.78934211 8.1451462,7.78934211 7.97391813,7.98203947 C7.80263158,8.17473684 7.80263158,8.48717105 7.97391813,8.67980263 L8.84134503,9.65565789 Z" id="Shape"></path>
                <path d="M14.4647368,7.73105263 L20.6092982,7.73105263 C20.8515205,7.73105263 21.0478947,7.51013158 21.0478947,7.23763158 C21.0478947,6.96513158 20.8515205,6.74421053 20.6092982,6.74421053 L14.4647368,6.74421053 C14.2225146,6.74421053 14.0261404,6.96513158 14.0261404,7.23763158 C14.0261404,7.51013158 14.2225146,7.73105263 14.4647368,7.73105263 Z" id="Shape"></path>
                <path d="M14.4647368,10.0530263 L16.6333918,10.0530263 C16.875614,10.0530263 17.0719883,9.83210526 17.0719883,9.55960526 C17.0719883,9.28710526 16.875614,9.06618421 16.6333918,9.06618421 L14.4647368,9.06618421 C14.2225146,9.06618421 14.0261404,9.28710526 14.0261404,9.55960526 C14.0261404,9.83210526 14.2225146,10.0530263 14.4647368,10.0530263 Z" id="Shape"></path>
                <path d="M7.97391813,15.6059211 L8.84134503,16.5818421 C8.92356725,16.6744079 9.0351462,16.7263816 9.15146199,16.7263816 C9.26777778,16.7263816 9.37935673,16.6744079 9.46157895,16.5818421 L11.0760234,14.7655921 C11.2473099,14.5728947 11.2473099,14.2604605 11.0760234,14.0678289 C10.9047368,13.8751316 10.6270175,13.8751316 10.4557895,14.0678289 L9.15146199,15.5351974 L8.59415205,14.9081579 C8.4228655,14.7153947 8.1451462,14.7154605 7.97391813,14.9081579 C7.8025731,15.1007895 7.8025731,15.4132237 7.97391813,15.6059211 Z" id="Shape"></path>
                <path d="M14.4647368,14.6572368 L20.6092982,14.6572368 C20.8515205,14.6572368 21.0478947,14.4363158 21.0478947,14.1638158 C21.0478947,13.8913158 20.8515205,13.6703947 20.6092982,13.6703947 L14.4647368,13.6703947 C14.2225146,13.6703947 14.0261404,13.8913158 14.0261404,14.1638158 C14.0261404,14.4363158 14.2225146,14.6572368 14.4647368,14.6572368 Z" id="Shape"></path>
                <path d="M14.4647368,16.9792763 L16.6333918,16.9792763 C16.875614,16.9792763 17.0719883,16.7583553 17.0719883,16.4858553 C17.0719883,16.2133553 16.875614,15.9924342 16.6333918,15.9924342 L14.4647368,15.9924342 C14.2225146,15.9924342 14.0261404,16.2133553 14.0261404,16.4858553 C14.0261404,16.7583553 14.2225146,16.9792763 14.4647368,16.9792763 Z" id="Shape"></path>
                <path d="M14.4647368,21.5834211 L20.6092982,21.5834211 C20.8515205,21.5834211 21.0478947,21.3625 21.0478947,21.09 C21.0478947,20.8175 20.8515205,20.5965789 20.6092982,20.5965789 L14.4647368,20.5965789 C14.2225146,20.5965789 14.0261404,20.8175 14.0261404,21.09 C14.0261404,21.3625 14.2225146,21.5834211 14.4647368,21.5834211 Z" id="Shape"></path>
                <path d="M14.4647368,23.9054605 L16.6333918,23.9054605 C16.875614,23.9054605 17.0719883,23.6845395 17.0719883,23.4120395 C17.0719883,23.1395395 16.875614,22.9186184 16.6333918,22.9186184 L14.4647368,22.9186184 C14.2225146,22.9186184 14.0261404,23.1395395 14.0261404,23.4120395 C14.0261404,23.6845395 14.2225146,23.9054605 14.4647368,23.9054605 Z" id="Shape"></path>
                <path d="M9.52497076,24.4115789 C10.6304094,24.4115789 11.5298246,23.3998026 11.5298246,22.1561184 C11.5298246,20.9124342 10.6304678,19.9006579 9.52497076,19.9006579 C8.41947368,19.9006579 7.52011696,20.9124342 7.52011696,22.1561184 C7.52011696,23.3998026 8.41953216,24.4115789 9.52497076,24.4115789 Z M9.52497076,20.8875 C10.1467251,20.8875 10.6526316,21.4565789 10.6526316,22.1561184 C10.6526316,22.8556579 10.1467836,23.4247368 9.52497076,23.4247368 C8.90315789,23.4247368 8.39730994,22.8556579 8.39730994,22.1561184 C8.39730994,21.4565789 8.90321637,20.8875 9.52497076,20.8875 Z" id="Shape"></path>
            </g>
        </g>
    </g>
</svg>