<?xml version="1.0" encoding="UTF-8"?>
<svg width="30px" height="30px" viewBox="0 0 30 30" version="1.1" xmlns="http://www.w3.org/2000/svg" xmlns:xlink="http://www.w3.org/1999/xlink">
    <!-- Generator: Sketch 51.2 (57519) - http://www.bohemiancoding.com/sketch -->
    <title>Result</title>
    <desc>Created with Sketch.</desc>
    <defs></defs>
    <g id="admin" stroke="none" stroke-width="1" fill="none" fill-rule="evenodd">
        <g id="Artboard" transform="translate(-246.000000, -78.000000)" fill="#8A83AC" fill-rule="nonzero">
            <g id="Result" transform="translate(246.000000, 78.000000)">
                <path d="M2.82862694,11.0185547 C3.13670984,10.9483008 3.31103627,10.7030273 3.21777202,10.4707031 C3.01904145,9.97529297 2.91823834,9.45890625 2.91823834,8.93589844 L2.91823834,7.34302734 C3.9073057,7.59451172 4.93841969,7.7221875 5.99471503,7.7221875 C8.48331606,7.7221875 10.8772539,6.99222656 12.6679275,5.70287109 C13.7465285,6.71912109 15.2633161,7.40115234 16.9602591,7.63300781 L16.9602591,8.93583984 C16.9602591,11.8545117 13.8106477,14.2290234 9.9392487,14.2290234 C7.64183938,14.2290234 5.48572539,13.3790039 4.17170984,11.9551172 C3.98782383,11.7558984 3.62471503,11.7067383 3.36031088,11.8453711 C3.09606218,11.9840039 3.03093264,12.2578711 3.21474093,12.4570898 C4.74660622,14.1169336 7.26046632,15.1078711 9.9392487,15.1078711 C14.4534715,15.1078711 18.1260622,12.339082 18.1260622,8.93578125 L18.1260622,7.25402344 L18.1260622,6.17191406 C18.1260622,6.11689453 18.1250518,6.06205078 18.1231088,6.00738281 C18.1227202,5.99548828 18.1217876,5.98365234 18.1213212,5.97175781 C18.119456,5.92828125 18.1173575,5.88492188 18.1143264,5.84167969 C18.1135492,5.83119141 18.1125389,5.82082031 18.1116839,5.81033203 C18.1081865,5.76515625 18.1043005,5.72009766 18.0995596,5.67521484 C18.0987824,5.66759766 18.0976943,5.65998047 18.0968394,5.65236328 C18.0914767,5.60419922 18.0854922,5.55621094 18.0787306,5.50839844 C18.0780311,5.50371094 18.0772539,5.49902344 18.0765544,5.49433594 C18.0690933,5.443125 18.0608549,5.39214844 18.0517617,5.34134766 C18.0514508,5.33958984 18.0511399,5.33789063 18.050829,5.33613281 C17.941399,4.72939453 17.7147668,4.1503125 17.3884197,3.61253906 C17.3813472,3.60082031 17.373886,3.58916016 17.366658,3.57744141 C17.3456736,3.54351563 17.3246114,3.50964844 17.3028497,3.47601563 C17.2887824,3.45421875 17.2742487,3.43253906 17.2597927,3.41085938 C17.244715,3.38824219 17.2296373,3.36556641 17.214171,3.343125 C17.1945855,3.31458984 17.1746114,3.28623047 17.1544819,3.25792969 C17.1440674,3.24333984 17.1337306,3.22880859 17.1231606,3.21427734 C17.0983679,3.18017578 17.0731865,3.14625 17.0475389,3.11244141 C17.0420984,3.10535156 17.036658,3.09820313 17.0312176,3.09111328 C16.5779534,2.49908203 15.9927202,1.96107422 15.2899741,1.50328125 C15.2822021,1.49771484 15.2742746,1.49226563 15.266114,1.48699219 C15.2543782,1.47943359 15.242487,1.47210938 15.2305181,1.46484375 L15.2201036,1.45845703 C15.1978756,1.44433594 15.1751813,1.43080078 15.1527979,1.41679688 C15.1450259,1.41193359 15.1372539,1.4071875 15.1294041,1.40232422 C15.0963731,1.38181641 15.0636528,1.36089844 15.0303109,1.34097656 C15.0035751,1.32492188 14.9766062,1.30916016 14.9496373,1.29339844 L14.9411658,1.28847656 C14.913886,1.27259766 14.8862176,1.25736328 14.8587824,1.24177734 C14.8451036,1.23398438 14.8314249,1.22619141 14.8177461,1.21851563 C14.7994819,1.20826172 14.7814508,1.19759766 14.7631088,1.18751953 C14.7279793,1.16818359 14.692772,1.14902344 14.6568653,1.12992188 C14.6208031,1.11070313 14.5842746,1.0921875 14.5479016,1.07349609 C14.533601,1.06611328 14.5193782,1.05855469 14.505,1.05128906 C14.5000259,1.04876953 14.4951295,1.04613281 14.4902332,1.04361328 C14.4491192,1.02287109 14.4079275,1.00212891 14.3655699,0.981503906 C14.315285,0.957128906 14.2643782,0.933398438 14.2136269,0.909960938 L14.2076425,0.907207031 C14.1855699,0.896953125 14.163342,0.886933594 14.1410363,0.876855469 C14.1165544,0.865664063 14.0924611,0.854355469 14.0673575,0.84328125 C14.0548446,0.837773438 14.0420984,0.8325 14.0295078,0.827109375 C13.9991969,0.813867188 13.9685751,0.801035156 13.9380311,0.788085938 L13.927772,0.78375 C13.927228,0.783515625 13.9266839,0.78328125 13.9262176,0.783105469 C13.8856477,0.765996094 13.845,0.748945313 13.8039637,0.732363281 C13.7902073,0.726738281 13.7769171,0.7209375 13.7630052,0.715371094 C13.7438083,0.707695313 13.7243782,0.7003125 13.7049482,0.692929688 C13.5512176,0.632636719 13.3946114,0.576035156 13.2353627,0.523007813 C13.2320207,0.521894531 13.2287565,0.520839844 13.2254145,0.519726563 C13.1617617,0.498574219 13.0976425,0.478066406 13.0331347,0.458144531 C13.0179793,0.453457031 13.0029016,0.448769531 12.9877461,0.444140625 C12.9373057,0.428789063 12.8864767,0.413964844 12.8355699,0.399375 C12.8112435,0.392402344 12.7869948,0.385195313 12.7625907,0.378398438 C12.7307254,0.369550781 12.6985492,0.361171875 12.6665285,0.352617188 C12.0639637,0.190957031 11.4414249,0.084609375 10.8030311,0.0343945313 C10.7860104,0.033046875 10.7689896,0.0316992188 10.7518912,0.0304101563 C10.7016062,0.02671875 10.6512435,0.0232617188 10.6008031,0.0202734375 C10.5721244,0.018515625 10.5433679,0.0170507813 10.5145337,0.0155273438 C10.4721762,0.013359375 10.4297409,0.0111328125 10.387228,0.00943359375 C10.3458031,0.007734375 10.3042228,0.0065625 10.2625648,0.00533203125 C10.2304663,0.00439453125 10.1984456,0.00322265625 10.1662694,0.002578125 C10.0908808,0.0009375 10.0152591,0 9.93932642,0 C5.42510363,0 1.75251295,2.76878906 1.75251295,6.17208984 L1.75251295,6.70201172 L1.75251295,8.93589844 C1.75251295,9.54515625 1.87010363,10.1471484 2.10194301,10.7251758 C2.19512953,10.9575 2.52031088,11.08875 2.82862694,11.0185547 Z M2.91831606,6.17208984 C2.91831606,3.25341797 6.06792746,0.87890625 9.93932642,0.87890625 C10.004456,0.87890625 10.0693523,0.879726562 10.1340933,0.881015625 C10.1616062,0.881601562 10.1890415,0.882597656 10.2165544,0.883359375 C10.2521503,0.884414062 10.2877461,0.88546875 10.3232642,0.886875 C10.3598705,0.888398437 10.3963212,0.890214844 10.432772,0.892148437 C10.4573316,0.8934375 10.4818912,0.894726562 10.5064508,0.896191406 C10.5498187,0.898828125 10.5930311,0.901699219 10.6361658,0.904921875 C10.6507772,0.906035156 10.6654663,0.907207031 10.6800777,0.908320312 C11.0840674,0.940429687 11.4780311,0.998261719 11.8587824,1.07994141 C11.8592487,1.08005859 11.8597927,1.08017578 11.8602591,1.08023437 C11.9924611,1.10859375 12.1228756,1.14017578 12.2517358,1.17421875 C12.2891192,1.18412109 12.3265803,1.19390625 12.3638083,1.20427734 C12.3795855,1.20867187 12.3952073,1.21335937 12.4109845,1.2178125 C12.4606477,1.23199219 12.5101554,1.24640625 12.5594301,1.26146484 C12.5673575,1.26386719 12.575285,1.26632812 12.5831347,1.26878906 C12.7711399,1.32685547 12.9567358,1.39119141 13.1396891,1.46214844 L13.1776166,1.47667969 C13.1786269,1.47703125 13.1794819,1.47738281 13.1804922,1.47779297 C13.202487,1.48646484 13.2244819,1.49519531 13.2463212,1.50398437 C13.2832383,1.51910156 13.32,1.53439453 13.3566062,1.54986328 L13.3895596,1.56375 C13.4120984,1.57324219 13.4342487,1.58273437 13.4563212,1.59228516 C13.4779275,1.60177734 13.4993782,1.61144531 13.5209067,1.62111328 C13.5452332,1.6321875 13.5696373,1.64320312 13.593886,1.65445312 L13.6041451,1.65919922 C13.6459585,1.67853516 13.6875389,1.69792969 13.7281088,1.71755859 C13.7596632,1.73285156 13.790829,1.74855469 13.8219948,1.76419922 C13.8284456,1.76748047 13.8349741,1.77064453 13.8415026,1.77392578 C13.8781865,1.79244141 13.9144041,1.81136719 13.9504663,1.83035156 C13.9648446,1.83791016 13.9793782,1.84529297 13.9937565,1.85296875 C14.0023057,1.85753906 14.0109326,1.86228516 14.0194819,1.86691406 C14.0470725,1.88185547 14.0745078,1.89697266 14.1017876,1.91220703 C14.1313212,1.92861328 14.1603886,1.94519531 14.1893005,1.96183594 C14.246114,1.99453125 14.3023057,2.0278125 14.3577202,2.06173828 C14.3824352,2.07691406 14.4070725,2.09203125 14.4313212,2.10732422 C14.4646632,2.12830078 14.4979275,2.14927734 14.5307254,2.17072266 C14.5326684,2.17195312 14.5345337,2.17324219 14.5364767,2.17453125 C15.0798187,2.53013672 15.5500259,2.94755859 15.928057,3.41203125 C15.9345855,3.42005859 15.9412694,3.42802734 15.9477202,3.43611328 C15.9676166,3.46089844 15.9871244,3.48591797 16.0064767,3.51099609 C16.0183679,3.52640625 16.0303368,3.54181641 16.0420725,3.55734375 C16.0574611,3.57767578 16.0725389,3.598125 16.0875389,3.61857422 C16.1032383,3.63996094 16.1187824,3.66146484 16.1340933,3.68302734 C16.145285,3.69884766 16.156399,3.71472656 16.1674352,3.73060547 C16.1867098,3.75849609 16.2056736,3.78644531 16.2242487,3.81457031 C16.2312435,3.82517578 16.2383161,3.83572266 16.2452332,3.84632813 C16.2687824,3.88253906 16.2917876,3.91886719 16.3142487,3.95548828 C16.3161917,3.95859375 16.3181347,3.96169922 16.32,3.96480469 C16.6064767,4.43460938 16.801399,4.93587891 16.8954404,5.45361328 C16.8955959,5.45449219 16.8957513,5.4553125 16.8959067,5.45619141 C16.9039119,5.50042969 16.9110622,5.54472656 16.9175907,5.58919922 C16.9181347,5.59306641 16.9187565,5.596875 16.9193782,5.60074219 C16.925285,5.64193359 16.9304145,5.68324219 16.9350777,5.72466797 C16.9358549,5.73134766 16.9367098,5.73802734 16.937487,5.74476563 C16.9416062,5.78326172 16.9449482,5.821875 16.9479793,5.86054687 C16.9486788,5.86974609 16.9496891,5.87888672 16.9503109,5.88814453 C16.9529534,5.92564453 16.9548187,5.96320313 16.9564508,6.00082031 C16.9568394,6.01072266 16.9576166,6.020625 16.9579275,6.03052734 C16.9595596,6.07763672 16.9604922,6.12486328 16.9604922,6.17214844 L16.9604922,6.73863281 C15.4303368,6.48697266 14.0919171,5.79199219 13.2230052,4.78259766 C13.1243782,4.66804688 12.9607772,4.59457031 12.7802332,4.58373047 C12.5991451,4.57300781 12.4226425,4.62603516 12.3013212,4.72740234 C10.691658,6.07212891 8.39300518,6.84333984 5.99494819,6.84333984 C4.93305699,6.84333984 3.89992228,6.69726562 2.9184715,6.40880859 L2.9184715,6.17208984 L2.91831606,6.17208984 Z" id="Shape"></path>
                <path d="M9.93955959,12.9638086 C11.055544,12.9638086 12.1155699,12.5234766 12.7750259,11.7858398 C12.9549482,11.5845703 12.884456,11.3114648 12.6175648,11.1758203 C12.3505959,11.0401172 11.988342,11.0933789 11.8084197,11.2945312 C11.3592746,11.7967969 10.6781347,12.0848437 9.93955959,12.0848437 C9.20121762,12.0848437 8.5196114,11.7966797 8.0696114,11.2942383 C7.88945596,11.0930273 7.52712435,11.0401758 7.26031088,11.1759375 C6.99349741,11.3117578 6.92323834,11.5849219 7.10339378,11.7860742 C7.7638601,12.5235352 8.82411917,12.9638086 9.93955959,12.9638086 Z" id="Shape"></path>
                <path d="M29.9425648,29.4009961 L26.0587306,21.8877539 C25.9418394,21.6616406 25.6039119,21.5497266 25.3039896,21.6378516 C25.0040674,21.7259766 24.8556218,21.9807422 24.972513,22.2068555 L28.5466321,29.1210938 L7.68225389,29.1210938 L8.02733161,28.4535352 C8.03098446,28.4472656 8.03401554,28.4407617 8.03727979,28.4343164 L9.93108808,24.7706836 C9.93341969,24.7665234 9.93544041,24.7623047 9.93761658,24.7580859 L11.1117358,22.4867578 L15.7241192,22.4867578 C16.0460363,22.4867578 16.3070207,22.29 16.3070207,22.0473047 C16.3070207,21.8046094 16.0460363,21.6078516 15.7241192,21.6078516 L13.1121762,21.6078516 L11.5136269,17.5113281 L12.6168653,17.5113281 C14.3073575,17.5113281 15.9354404,18.0486328 17.0835233,18.9855469 C17.3019948,19.1637891 17.6707772,19.1748047 17.9072021,19.0100977 C18.1436269,18.8453906 18.1582383,18.5673633 17.9397668,18.3891211 C16.571658,17.2727344 14.6315285,16.6324219 12.6167876,16.6324219 L10.7344041,16.6324219 L9.1442487,16.6324219 L7.26186528,16.6324219 C3.26735751,16.6324219 0.0175647668,19.0824609 0.0175647668,22.0939453 L0.0175647668,28.2785156 C0.0175647668,28.5212109 0.278549223,28.7179687 0.600466321,28.7179687 L6.63932642,28.7179687 L6.28624352,29.4009375 C6.21637306,29.5361719 6.23953368,29.6886914 6.34810881,29.8085156 C6.45676166,29.9283398 6.63683938,30 6.82935233,30 L29.3992228,30 C29.5917358,30 29.7718135,29.9283398 29.8804663,29.8085156 C29.9892746,29.68875 30.0124352,29.5361719 29.9425648,29.4009961 Z M10.2983938,17.5113281 L11.896943,21.6078516 L10.713342,21.6078516 C10.4731088,21.6078516 10.2574352,21.7189453 10.1702332,21.8877539 L9.18031088,23.8027148 L7.60049223,22.5833203 L9.58041451,17.5112695 L10.2983938,17.5112695 L10.2983938,17.5113281 Z M1.1834456,27.8390625 L1.1834456,22.0939453 C1.1834456,19.5670898 3.91025907,17.5113281 7.26194301,17.5113281 L8.36510363,17.5113281 L6.38564767,22.5821484 C6.32611399,22.7347266 6.38051813,22.8995508 6.52787565,23.0132812 L8.71554404,24.7017773 L7.09375648,27.8390039 L1.1834456,27.8390625 Z" id="Shape"></path>
                <path d="M10.6771244,26.5811133 C10.6771244,26.8238086 10.9381088,27.0205664 11.2600259,27.0205664 L24.9688601,27.0205664 C25.2907772,27.0205664 25.5517617,26.8238086 25.5517617,26.5811133 C25.5517617,26.338418 25.2907772,26.1416602 24.9688601,26.1416602 L11.2600259,26.1416602 C10.9381088,26.1416602 10.6771244,26.338418 10.6771244,26.5811133 Z" id="Shape"></path>
                <path d="M17.5647668,21.9632227 C17.5596373,21.9742383 17.5559067,21.9856055 17.551943,21.9969141 C17.5492228,22.0048242 17.5458031,22.0126172 17.5436269,22.0205859 C17.5403627,22.0326562 17.5386528,22.0449609 17.5367876,22.057207 C17.5356218,22.0646484 17.5336788,22.0720312 17.533057,22.0794727 C17.5318912,22.0931836 17.5324352,22.1070703 17.5329793,22.1208984 C17.5332124,22.1269922 17.5325907,22.1330859 17.5331347,22.1392383 C17.535,22.1591602 17.5385751,22.179082 17.544171,22.1989453 L18.228342,24.6465234 C18.3254922,24.9939258 18.6477202,25.2738867 19.0902591,25.395293 C19.242513,25.4370703 19.3998187,25.4575781 19.5558031,25.4575781 C19.8532383,25.4575781 20.1456995,25.3830469 20.3888083,25.2393164 L22.9997409,23.695957 C23.0209585,23.683418 23.0406995,23.6698828 23.0591192,23.6555273 C23.0645596,23.65125 23.0691451,23.6464453 23.0743523,23.6419922 C23.0867876,23.6315039 23.0992228,23.6210156 23.1101813,23.609707 C23.1158549,23.6038477 23.1204404,23.5975195 23.1257254,23.5914844 C23.1349741,23.5809375 23.1443005,23.5705078 23.152228,23.5594336 C23.1572798,23.5524023 23.1611658,23.5450195 23.1657513,23.5378125 C23.172513,23.5270898 23.1793523,23.5164258 23.1849482,23.505293 C23.1858031,23.5035937 23.1869689,23.5021289 23.1878238,23.5004297 L27.7620466,14.0256445 C27.8721762,13.7975977 27.7161917,13.5454102 27.4136269,13.4623828 C27.1112953,13.3794141 26.7766321,13.4969531 26.6665026,13.7250586 L22.2916321,22.786875 L18.8616062,21.8456836 L25.3182124,8.47195312 C25.3573057,8.39085937 25.4768394,8.34896484 25.584171,8.3784375 L28.6241192,9.21257812 C28.6943782,9.23185547 28.7277202,9.27152344 28.7412435,9.2934375 C28.7548446,9.31541016 28.7737306,9.36011719 28.7481606,9.41308594 L27.4633679,12.0743555 C27.3532383,12.3024023 27.5092228,12.5545898 27.8117876,12.6376172 C28.1141192,12.7205859 28.4487824,12.6030469 28.5589119,12.3749414 L29.8437047,9.71367187 C29.9692228,9.45375 29.9529016,9.17261719 29.7979275,8.92195312 C29.6428756,8.67128906 29.3676684,8.48115234 29.0229016,8.38658203 L25.9830311,7.55244141 C25.638342,7.45787109 25.2653627,7.47011719 24.9329534,7.58701172 C24.6004663,7.70390625 24.3482642,7.91138672 24.2228238,8.17130859 L17.5668653,21.9579492 C17.5658549,21.9597656 17.565544,21.9615234 17.5647668,21.9632227 Z M19.4888083,24.5693555 C19.4521244,24.5592773 19.3876943,24.5323828 19.3689637,24.465293 L18.9012435,22.7919141 L21.4544301,23.4925195 L19.6693523,24.5477344 C19.597772,24.5899219 19.5254922,24.5794922 19.4888083,24.5693555 Z" id="Shape"></path>
            </g>
        </g>
    </g>
</svg>